<svg width="697" height="197" viewBox="0 0 697 197" fill="none" xmlns="http://www.w3.org/2000/svg">
<path d="M233.319 193.284H272.143V38.2317H300.862V3.71619H204.601V38.2317H233.319V193.284Z" fill="#F3F3F3"/>
<path d="M415.541 193.284V158.768H374.59V3.7172H335.766V193.284H415.541ZM553.419 3.7172H514.596V146.555C514.596 159.83 511.404 162.485 503.427 162.485C495.45 162.485 492.259 159.83 492.259 146.555V3.7172H453.435V152.396C453.435 187.974 469.39 197 503.427 197C537.464 197 553.419 187.974 553.419 152.396V3.7172ZM695.291 60.7996V45.9318C695.291 12.2132 679.335 0 646.362 0C609.134 0 596.369 14.3365 596.369 48.3217C596.369 111.509 657.264 107.527 657.53 146.821C657.53 157.972 654.339 162.485 646.362 162.485C638.65 162.485 635.193 157.706 635.193 146.821V133.546H596.37V151.335C596.37 186.381 610.729 197 646.096 197C684.123 197 696.354 184.788 696.354 145.228C696.354 83.3665 635.193 83.3665 635.193 50.1793C635.193 39.0287 638.384 34.5145 646.362 34.5145C654.073 34.5145 657.53 39.2943 657.53 50.1793V60.7996H695.291Z" fill="#F3F3F3"/>
<path fill-rule="evenodd" clip-rule="evenodd" d="M0 192.075H44.9578L128.811 63.1071V192.075H166.99V4.32416H122.39L0 192.075Z" fill="#F3F3F3"/>
</svg>
